<svg width="32" height="32" viewBox="0 0 32 32" fill="none" xmlns="http://www.w3.org/2000/svg">
<path d="M18.5896 5.01781C20.4572 5.01781 22.2116 5.74409 23.5321 7.06433C24.8527 8.38457 25.5791 10.1385 25.5791 12.0057C25.5791 13.8728 24.8527 15.6268 23.5321 16.947L18.0367 22.4412C16.7161 23.7614 14.9618 24.4877 13.0942 24.4877C11.2266 24.4877 9.47222 23.7614 8.15167 22.4412C5.42675 19.7169 5.42675 15.2828 8.15167 12.5585L13.6471 7.06433C14.9677 5.74409 16.722 5.01781 18.5896 5.01781ZM13.0942 22.9352C14.5456 22.9352 15.9117 22.3691 16.9382 21.3429L22.4336 15.8488C23.4601 14.8226 24.0262 13.4568 24.0262 12.0057C24.0262 10.5546 23.4601 9.18877 22.4336 8.16257C21.4072 7.13637 20.041 6.57034 18.5896 6.57034C17.1382 6.57034 15.772 7.1349 14.7456 8.16257L9.25017 13.6567C7.13111 15.7753 7.13111 19.2244 9.25017 21.3429C10.2766 22.3691 11.6427 22.9352 13.0942 22.9352Z" fill="url(#paint0_linear_4276_1091)"/>
<path d="M18.5896 5.01781C20.4572 5.01781 22.2116 5.74409 23.5321 7.06433C24.8527 8.38457 25.5791 10.1385 25.5791 12.0057C25.5791 13.8728 24.8527 15.6268 23.5321 16.947L18.0367 22.4412C16.7161 23.7614 14.9618 24.4877 13.0942 24.4877C11.2266 24.4877 9.47222 23.7614 8.15167 22.4412C5.42675 19.7169 5.42675 15.2828 8.15167 12.5585L13.6471 7.06433C14.9677 5.74409 16.722 5.01781 18.5896 5.01781ZM13.0942 22.9352C14.5456 22.9352 15.9117 22.3691 16.9382 21.3429L22.4336 15.8488C23.4601 14.8226 24.0262 13.4568 24.0262 12.0057C24.0262 10.5546 23.4601 9.18877 22.4336 8.16257C21.4072 7.13637 20.041 6.57034 18.5896 6.57034C17.1382 6.57034 15.772 7.1349 14.7456 8.16257L9.25017 13.6567C7.13111 15.7753 7.13111 19.2244 9.25017 21.3429C10.2766 22.3691 11.6427 22.9352 13.0942 22.9352Z" fill="#0A0A0A" fill-opacity="0.3"/>
<path d="M13.0942 5.01781C14.9618 5.01781 16.7161 5.74409 18.0367 7.06433L23.5321 12.5585C24.8527 13.8787 25.5791 15.6327 25.5791 17.4998C25.5791 19.367 24.8527 21.1209 23.5321 22.4412C22.2116 23.7614 20.4572 24.4877 18.5896 24.4877C16.722 24.4877 14.9677 23.7614 13.6471 22.4412L8.15167 16.947C5.42675 14.2227 5.42675 9.78862 8.15167 7.06433C9.47222 5.74409 11.2266 5.01781 13.0942 5.01781ZM18.5896 22.9352C20.041 22.9352 21.4072 22.3691 22.4336 21.3429C23.4601 20.3167 24.0262 18.9509 24.0262 17.4998C24.0262 16.0487 23.4601 14.6829 22.4336 13.6567L16.9382 8.16257C15.9117 7.13637 14.5456 6.57034 13.0942 6.57034C11.6427 6.57034 10.2766 7.1349 9.25017 8.16257C7.13111 10.2811 7.13111 13.7302 9.25017 15.8488L14.7456 21.3429C15.772 22.3691 17.1382 22.9352 18.5896 22.9352Z" fill="url(#paint1_linear_4276_1091)"/>
<path d="M15.8426 0C23.9791 0 30.598 6.61885 30.598 14.7535C30.598 15.1828 30.251 15.5298 29.8216 15.5298C29.3922 15.5298 29.0451 15.1828 29.0451 14.7535C29.0451 7.47451 23.1218 1.55401 15.8426 1.55401C8.56337 1.55401 2.64001 7.47598 2.64001 14.7535C2.64001 22.031 8.5619 27.953 15.8426 27.953C16.272 27.953 16.619 28.2999 16.619 28.7292C16.619 29.1585 16.272 29.5055 15.8426 29.5055C7.70604 29.5055 1.08712 22.8881 1.08712 14.7535C1.08712 6.61885 7.70604 0.00147164 15.8426 0.00147164V0Z" fill="url(#paint2_linear_4276_1091)"/>
<defs>
<linearGradient id="paint0_linear_4276_1091" x1="-23.5117" y1="0" x2="54.8595" y2="0" gradientUnits="userSpaceOnUse">
<stop stop-color="#FF50CD"/>
<stop offset="1" stop-color="#7D29FF"/>
</linearGradient>
<linearGradient id="paint1_linear_4276_1091" x1="-23.5117" y1="0" x2="54.8595" y2="0" gradientUnits="userSpaceOnUse">
<stop stop-color="#FF50CD"/>
<stop offset="1" stop-color="#7D29FF"/>
</linearGradient>
<linearGradient id="paint2_linear_4276_1091" x1="-23.5117" y1="0" x2="54.8595" y2="0" gradientUnits="userSpaceOnUse">
<stop stop-color="#FF50CD"/>
<stop offset="1" stop-color="#7D29FF"/>
</linearGradient>
</defs>
</svg>
